<svg xmlns="http://www.w3.org/2000/svg" viewBox="0 0 100 100" fill="none">
  <!-- Gradient Definitions -->
  <defs>
    <linearGradient id="bgGradient" x1="0%" y1="0%" x2="100%" y2="100%">
      <stop offset="0%" style="stop-color:#8b5cf6;stop-opacity:1" />
      <stop offset="100%" style="stop-color:#ec4899;stop-opacity:1" />
    </linearGradient>
  </defs>
  
  <!-- Background with rounded corners (matching rounded-xl) -->
  <rect width="100" height="100" rx="15" fill="url(#bgGradient)"/>
  
  <!-- MessageCircleHeart Icon (scaled and centered) -->
  <g transform="translate(50, 50) scale(2.5) translate(-12, -12)">
    <!-- Message bubble path -->
    <path d="M2.992 16.342a2 2 0 0 1 .094 1.167l-1.065 3.29a1 1 0 0 0 1.236 1.168l3.413-.998a2 2 0 0 1 1.099.092 10 10 0 1 0-4.777-4.719" 
          stroke="white" 
          stroke-width="2.5" 
          stroke-linecap="round" 
          stroke-linejoin="round" 
          fill="rgba(255,255,255,0.2)"/>
    
    <!-- Heart path -->
    <path d="M7.828 13.07A3 3 0 0 1 12 8.764a3 3 0 0 1 5.004 2.224 3 3 0 0 1-.832 2.083l-3.447 3.62a1 1 0 0 1-1.45-.001z" 
          stroke="white" 
          stroke-width="2.5" 
          stroke-linecap="round" 
          stroke-linejoin="round" 
          fill="rgba(255,255,255,0.2)"/>
  </g>
</svg>
